<?xml version="1.0" encoding="utf-8"?>
<svg viewBox="58.955 14.814 142.322 162.578" xmlns="http://www.w3.org/2000/svg">
  <path fill="#36A2EB" d="M 194.113 96.254 C 171.745 96.693 176.404 110.852 160.64 114.434 C 144.626 118.072 142.098 75.323 126.088 75.323 C 110.076 75.323 106.529 116.848 86.48 145.357 L 85.909 146.165 L 128.894 170.978 L 194.114 133.328 L 194.114 96.254 L 194.113 96.254 Z"/>
  <path fill="#FFCE56" d="M194.415,95.267c-7.488-9.61-12.567-20.658-23.494-20.658c-19.338,0-14.249,31.545-35.62,31.545 c-21.374,0-23.62-33.931-47.833-2.035c-7.715,10.163-13.925,21.494-18.802,32.218l60.528,34.942l65.22-37.65V95.267z"/>
  <path opacity="0.8" fill="#FE6184" d="M63.974,108.334c7.338-20.32,10.504-36.778,24.513-36.778c21.37,0,26.459,60.038,44.778,53.93 c18.318-6.105,16.283-38.668,44.779-38.668c5.423,0,10.962,3.323,16.371,8.699v38.112l-65.22,37.65l-65.222-37.65V108.334z"/>
  <path fill="#E7E9ED" d="M129.144,176l-69.291-40V56l69.291-40l69.292,40v80L129.144,176z M67.994,131.301l61.15,35.3l61.151-35.3 V60.7l-61.151-35.3l-61.15,35.3V131.301z"/>
</svg>